# xmcd
#
# Track frame offsets: 
#        150
#        46236
#        70911
#        75824
#        103649
#        128349
#        159899
#        194474
#        228724
#        270949
#        285324
#
# Disc length: 4104 seconds
#
# Revision: 9
# Processed by: cddbd v1.5.2PL0 Copyright (c) Steve Scherf et al.
# Submitted via: ExactAudioCopy v1.3
#
DISCID=7e10060b
DTITLE=Arthur Grumiaux (vln), Clara Haskil (pno) - Beethoven - Violin 
DTITLE=Sonatas II
DYEAR=1956
DGENRE=Chamber Music
TTITLE0=01. Violin Sonata in F major Op. 24 ''Spring'' - 1. Allegro
TTITLE1=02. Violin Sonata in F major Op. 24 ''Spring'' - 2. Adagio mol
TTITLE1=to espressivo
TTITLE2=03. Violin Sonata in F major Op. 24 ''Spring'' - 3. Scherzo, a
TTITLE2=llegro molto 
TTITLE3=04. Violin Sonata in F major Op. 24 ''Spring'' - 4. Rondo, all
TTITLE3=egretto ma non troppo
TTITLE4=05. Violin Sonata in A major Op. 30 No. 1 - 1. Allegro
TTITLE5=06. Violin Sonata in A major Op. 30 No. 1 - 2. Adagio
TTITLE6=07. Violin Sonata in A major Op. 30 No. 1 - 3. Allegretto con 
TTITLE6=variazioni
TTITLE7=08. Violin Sonata in C minor Op. 30 No. 2 - 1. Allegro con bri
TTITLE7=o
TTITLE8=09. Violin Sonata in C minor Op. 30 No. 2 - 2. Adagio cantabil
TTITLE8=e
TTITLE9=10. Violin Sonata in C minor Op. 30 No. 2 - 3. Scherzo, allegr
TTITLE9=o
TTITLE10=11. Violin Sonata in C minor Op. 30 No. 2 - 4. Finale, allegr
TTITLE10=o
EXTD=a-440 rip CD 2  Philips 422 140 2 PLC3 \nMono,Out of Print YEAR: 
EXTD=1956
EXTT0=
EXTT1=
EXTT2=
EXTT3=
EXTT4=
EXTT5=
EXTT6=
EXTT7=
EXTT8=
EXTT9=
EXTT10=
PLAYORDER=
